<?xml version="1.0" standalone="no"?>
<!DOCTYPE svg PUBLIC "-//W3C//DTD SVG 20010904//EN"
 "http://www.w3.org/TR/2001/REC-SVG-20010904/DTD/svg10.dtd">
<svg version="1.0" xmlns="http://www.w3.org/2000/svg"
 width="32.000000pt" height="32.000000pt" viewBox="0 0 32.000000 32.000000"
 preserveAspectRatio="xMidYMid meet">

<g transform="translate(0.000000,32.000000) scale(0.100000,-0.100000)"
fill="#000000" stroke="none">
<path d="M25 295 c-24 -23 -25 -31 -25 -135 0 -104 1 -112 25 -135 23 -24 31
-25 135 -25 104 0 112 1 135 25 24 23 25 31 25 135 0 104 -1 112 -25 135 -23
24 -31 25 -135 25 -104 0 -112 -1 -135 -25z m104 -37 c15 -15 18 -25 11 -34
-7 -8 -6 -13 3 -17 9 -3 20 8 32 31 15 33 18 35 30 19 7 -9 20 -17 29 -17 9 0
16 -6 16 -13 0 -16 -37 -39 -45 -28 -3 5 -22 -7 -44 -27 -23 -23 -34 -40 -28
-44 8 -4 5 -13 -6 -26 -9 -10 -17 -26 -17 -35 0 -9 -4 -17 -10 -17 -5 0 -10 9
-10 20 0 17 -5 19 -25 14 -31 -8 -34 13 -4 24 19 7 19 9 5 21 -21 17 -21 61
-1 61 18 0 20 17 3 23 -9 3 -6 11 10 26 12 12 22 26 22 31 0 15 7 12 29 -12z
m105 -90 c-4 -7 -16 -25 -27 -40 -34 -46 2 -80 45 -42 16 16 18 15 24 -1 8
-20 -19 -45 -49 -45 -37 0 -57 19 -57 55 0 18 -5 35 -12 37 -27 9 23 46 65 47
12 1 16 -3 11 -11z"/>
<path d="M87 155 c3 -8 9 -12 14 -9 12 7 11 11 -5 17 -10 4 -13 1 -9 -8z"/>
</g>
</svg>
